<?xml version="1.0" encoding="utf-8"?>
<!-- Generator: Adobe Illustrator 23.1.1, SVG Export Plug-In . SVG Version: 6.00 Build 0)  -->
<svg version="1.1" id="Layer_1" xmlns="http://www.w3.org/2000/svg" xmlns:xlink="http://www.w3.org/1999/xlink" x="0px" y="0px"
	 viewBox="0 0 288 288" style="enable-background:new 0 0 288 288;" xml:space="preserve">
<style type="text/css">
	.st0{fill:none;}
	.st1{fill:#FFFFFF;}
	.st2{fill:none;stroke:#FFFFFF;stroke-width:5;stroke-linecap:round;stroke-linejoin:round;stroke-miterlimit:10;}
</style>
<path class="st0" d="M-74.5,167v-4 M-112.8,184.6c0,0,0.3-4.1,0-9.6 M-74.5,163c-0.3-10.8-3.5-40.6-28-48.8
	c-5.2-1.7-11.3-2.5-18.5-1.9c-25.7,4.2-31.6,17.3-31.6,17.3V122c0-4.3-3.5-7.8-7.8-7.8h-22.6c-4.3,0-7.8,3.5-7.8,7.8v102
	c0,4.3,3.5,7.8,7.8,7.8h22.6c4.3,0,7.8-3.5,7.8-7.8v-59.3c0,0,2.3-20.7,22.5-20.7c13.8,0,16.9,19,17.5,31V224c0,4.3,3.5,7.8,7.8,7.8
	h22.6c4.3,0,7.8-3.5,7.8-7.8v-57C-74.5,167-74.5,165.5-74.5,163z M-213.9,114.2h-22.6c-4.3,0-7.8,3.5-7.8,7.8v102
	c0,4.3,3.5,7.8,7.8,7.8h22.6c4.3,0,7.8-3.5,7.8-7.8V122C-206,117.7-209.5,114.2-213.9,114.2z M-225.6,56.3
	c-13.4,0-24.2,10.8-24.2,24.2c0,13.4,10.8,24.2,24.2,24.2s24.2-10.8,24.2-24.2C-201.3,67.2-212.2,56.3-225.6,56.3z"/>
<path class="st1" d="M-72.7,31.5H-255c-11.8,0-21.4,9.6-21.4,21.4v182.3c0,11.8,9.6,21.4,21.4,21.4h182.3c11.8,0,21.4-9.6,21.4-21.4
	V52.9C-51.4,41.1-60.9,31.5-72.7,31.5z M-206,224c0,4.3-3.5,7.8-7.8,7.8h-22.6c-4.3,0-7.8-3.5-7.8-7.8V122c0-4.3,3.5-7.8,7.8-7.8
	h22.6c4.3,0,7.8,3.5,7.8,7.8V224z M-225.6,104.8c-13.4,0-24.2-10.8-24.2-24.2c0-13.4,10.8-24.2,24.2-24.2s24.2,10.8,24.2,24.2
	C-201.3,93.9-212.2,104.8-225.6,104.8z M-74.5,167v57c0,4.3-3.5,7.8-7.8,7.8h-22.6c-4.3,0-7.8-3.5-7.8-7.8V175
	c-0.6-12-3.7-31-17.5-31c-20.2,0-22.5,20.7-22.5,20.7V224c0,4.3-3.5,7.8-7.8,7.8h-22.6c-4.3,0-7.8-3.5-7.8-7.8V122
	c0-4.3,3.5-7.8,7.8-7.8h22.6c4.3,0,7.8,3.5,7.8,7.8v7.5c0,0,5.9-13,31.6-17.3c7.2-0.6,13.4,0.2,18.5,1.9c24.5,8.2,27.7,38,28,48.8
	C-74.5,165.5-74.5,167-74.5,167z"/>
<ellipse transform="matrix(0.7071 -0.7071 0.7071 0.7071 -123.0132 -135.9002)" class="st0" cx="-225.6" cy="80.5" rx="24.2" ry="24.2"/>
<path class="st0" d="M-206,122v102c0,4.3-3.5,7.8-7.8,7.8h-22.6c-4.3,0-7.8-3.5-7.8-7.8V122c0-4.3,3.5-7.8,7.8-7.8h22.6
	C-209.5,114.2-206,117.7-206,122z"/>
<path class="st0" d="M-74.5,163v61c0,4.3-3.5,7.8-7.8,7.8h-22.6c-4.3,0-7.8-3.5-7.8-7.8v-39.4c0,0,0.3-4.1,0-9.6
	c-0.6-12-3.7-31-17.5-31c-20.2,0-22.5,20.7-22.5,20.7V224c0,4.3-3.5,7.8-7.8,7.8h-22.6c-4.3,0-7.8-3.5-7.8-7.8V122
	c0-4.3,3.5-7.8,7.8-7.8h22.6c4.3,0,7.8,3.5,7.8,7.8v7.5c0,0,5.9-13,31.6-17.3c7.2-0.6,13.4,0.2,18.5,1.9
	C-78,122.4-74.9,152.2-74.5,163z"/>
<path class="st0" d="M-112.8,184.6V175C-112.5,180.5-112.8,184.6-112.8,184.6z"/>
<path class="st1" d="M235.1,31.5H52.9c-11.8,0-21.4,9.6-21.4,21.4v182.3c0,11.8,9.6,21.4,21.4,21.4h182.3c11.8,0,21.4-9.6,21.4-21.4
	V52.9C256.5,41.1,246.9,31.5,235.1,31.5z M222.6,184.7c0,6.5-5.2,11.7-11.7,11.7H82.5c-6.5,0-11.7-5.2-11.7-11.7v-76.4
	c0-6.5,5.2-11.7,11.7-11.7h128.4c6.5,0,11.7,5.2,11.7,11.7V184.7z"/>
<path class="st2" d="M79,103.9l44.8,40.8l16.3,14.9c0,0,8,5.5,14.2,0c6.2-5.5,60.7-54.3,60.7-54.3"/>
<line class="st2" x1="123.8" y1="144.8" x2="79" y2="189"/>
<line class="st2" x1="171" y1="144.8" x2="214.3" y2="189"/>
</svg>
