<svg xmlns="http://www.w3.org/2000/svg"><symbol id="email" viewBox="0 0 288 288"><path fill="#fff" d="M235.1 31.5H52.9a21.4 21.4 0 0 0-21.4 21.4v182.2a21.4 21.4 0 0 0 21.4 21.4h182.2a21.4 21.4 0 0 0 21.4-21.4V52.9a21.4 21.4 0 0 0-21.4-21.4zm-12.5 153.2a11.8 11.8 0 0 1-11.8 11.7H82.5a11.8 11.8 0 0 1-11.8-11.7v-76.5a11.8 11.8 0 0 1 11.8-11.7h128.3a11.8 11.8 0 0 1 11.8 11.7z"/><path fill="none" stroke="#fff" stroke-linecap="round" stroke-linejoin="round" stroke-width="5" d="M78.6 104.2l44.8 40.8 16.3 14.9s8 5.5 14.2 0l60.7-54.3M123.4 145l-44.8 44.2m92-44.2l43.3 44.2"/></symbol><symbol id="linked-in" viewBox="0 0 288 288"><path fill="none" d="M233.3 167v-4m-38.2 21.6a83.6 83.6 0 0 0 0-9.6m38.2-12c-.3-10.8-3.5-40.6-28-48.8a46.5 46.5 0 0 0-18.5-1.9c-25.8 4.2-31.6 17.2-31.6 17.2V122a7.8 7.8 0 0 0-7.9-7.8h-22.6a7.8 7.8 0 0 0-7.8 7.8v102a7.8 7.8 0 0 0 7.8 7.8h22.6a7.8 7.8 0 0 0 7.9-7.8v-59.3s2.2-20.7 22.4-20.7c13.8 0 16.9 19 17.5 31v49a7.8 7.8 0 0 0 7.8 7.8h22.6a7.8 7.8 0 0 0 7.8-7.8v-57s.1-1.5 0-4zM94 114.2H71.4a7.8 7.8 0 0 0-7.8 7.8v102a7.8 7.8 0 0 0 7.8 7.8H94a7.8 7.8 0 0 0 7.8-7.8V122a7.8 7.8 0 0 0-7.8-7.8zM82.3 56.3a24.3 24.3 0 1 0 24.2 24.2 24.3 24.3 0 0 0-24.2-24.2z"/><path fill="#fff" d="M235.1 31.5H52.9a21.4 21.4 0 0 0-21.4 21.4v182.2a21.4 21.4 0 0 0 21.4 21.4h182.2a21.4 21.4 0 0 0 21.4-21.4V52.9a21.4 21.4 0 0 0-21.4-21.4zM101.8 224a7.8 7.8 0 0 1-7.8 7.8H71.4a7.8 7.8 0 0 1-7.8-7.8V122a7.8 7.8 0 0 1 7.8-7.8H94a7.8 7.8 0 0 1 7.8 7.8zM82.3 104.8a24.3 24.3 0 1 1 24.2-24.3 24.3 24.3 0 0 1-24.2 24.3zm151 62.2v57a7.8 7.8 0 0 1-7.8 7.8h-22.6a7.8 7.8 0 0 1-7.8-7.8v-49c-.6-12-3.7-31-17.5-31-20.2 0-22.4 20.7-22.4 20.7V224a7.8 7.8 0 0 1-7.9 7.8h-22.6a7.8 7.8 0 0 1-7.8-7.8V122a7.8 7.8 0 0 1 7.8-7.8h22.6a7.8 7.8 0 0 1 7.9 7.8v7.5s5.8-13 31.6-17.2a46.5 46.5 0 0 1 18.5 1.9c24.5 8.2 27.7 38 28 48.8.1 2.5 0 4 0 4z"/><circle cx="82.3" cy="80.5" r="24.2" fill="none" transform="rotate(-45 82.341 80.493)"/><path fill="none" d="M101.8 122v102a7.8 7.8 0 0 1-7.8 7.8H71.4a7.8 7.8 0 0 1-7.8-7.8V122a7.8 7.8 0 0 1 7.8-7.8H94a7.8 7.8 0 0 1 7.8 7.8zm131.5 41v61a7.8 7.8 0 0 1-7.8 7.8h-22.6a7.8 7.8 0 0 1-7.8-7.8v-39.4a83.6 83.6 0 0 0 0-9.6c-.6-12-3.7-31-17.5-31-20.2 0-22.4 20.7-22.4 20.7V224a7.8 7.8 0 0 1-7.9 7.8h-22.6a7.8 7.8 0 0 1-7.8-7.8V122a7.8 7.8 0 0 1 7.8-7.8h22.6a7.8 7.8 0 0 1 7.9 7.8v7.5s5.8-13 31.6-17.2a46.5 46.5 0 0 1 18.5 1.9c24.5 8.2 27.7 38 28 48.8z"/><path fill="none" d="M195.1 184.6V175a83.6 83.6 0 0 1 0 9.6z"/></symbol></svg>