<svg xmlns="http://www.w3.org/2000/svg"><symbol id="icons" viewBox="0 0 288 288"><style>.st0{fill:none}.st1{fill:#010101}.st2{fill:none;stroke:#010101;stroke-width:5;stroke-linecap:round;stroke-linejoin:round;stroke-miterlimit:10}</style><path d="M-74.5 167v-4m-38.3 21.6s.3-4.1 0-9.6m38.3-12c-.3-10.8-3.5-40.6-28-48.8-5.2-1.7-11.3-2.5-18.5-1.9-25.7 4.2-31.6 17.3-31.6 17.3V122c0-4.3-3.5-7.8-7.8-7.8H-183c-4.3 0-7.8 3.5-7.8 7.8v102c0 4.3 3.5 7.8 7.8 7.8h22.6c4.3 0 7.8-3.5 7.8-7.8v-59.3s2.3-20.7 22.5-20.7c13.8 0 16.9 19 17.5 31v49c0 4.3 3.5 7.8 7.8 7.8h22.6c4.3 0 7.8-3.5 7.8-7.8v-57c-.1 0-.1-1.5-.1-4zm-139.4-48.8h-22.6c-4.3 0-7.8 3.5-7.8 7.8v102c0 4.3 3.5 7.8 7.8 7.8h22.6c4.3 0 7.8-3.5 7.8-7.8V122c.1-4.3-3.4-7.8-7.8-7.8zm-11.7-57.9c-13.4 0-24.2 10.8-24.2 24.2 0 13.4 10.8 24.2 24.2 24.2s24.2-10.8 24.2-24.2c.1-13.3-10.8-24.2-24.2-24.2z" class="st0"/><path d="M-72.7 31.5H-255c-11.8 0-21.4 9.6-21.4 21.4v182.3c0 11.8 9.6 21.4 21.4 21.4h182.3c11.8 0 21.4-9.6 21.4-21.4V52.9c-.1-11.8-9.6-21.4-21.4-21.4zM-206 224c0 4.3-3.5 7.8-7.8 7.8h-22.6c-4.3 0-7.8-3.5-7.8-7.8V122c0-4.3 3.5-7.8 7.8-7.8h22.6c4.3 0 7.8 3.5 7.8 7.8v102zm-19.6-119.2c-13.4 0-24.2-10.8-24.2-24.2 0-13.4 10.8-24.2 24.2-24.2s24.2 10.8 24.2 24.2c.1 13.3-10.8 24.2-24.2 24.2zM-74.5 167v57c0 4.3-3.5 7.8-7.8 7.8h-22.6c-4.3 0-7.8-3.5-7.8-7.8v-49c-.6-12-3.7-31-17.5-31-20.2 0-22.5 20.7-22.5 20.7V224c0 4.3-3.5 7.8-7.8 7.8h-22.6c-4.3 0-7.8-3.5-7.8-7.8V122c0-4.3 3.5-7.8 7.8-7.8h22.6c4.3 0 7.8 3.5 7.8 7.8v7.5s5.9-13 31.6-17.3c7.2-.6 13.4.2 18.5 1.9 24.5 8.2 27.7 38 28 48.8.1 2.6.1 4.1.1 4.1z" class="st1"/><ellipse cx="-225.6" cy="80.5" class="st0" rx="24.2" ry="24.2" transform="rotate(-45.001 -225.555 80.538)"/><path d="M-206 122v102c0 4.3-3.5 7.8-7.8 7.8h-22.6c-4.3 0-7.8-3.5-7.8-7.8V122c0-4.3 3.5-7.8 7.8-7.8h22.6c4.3 0 7.8 3.5 7.8 7.8zm131.5 41v61c0 4.3-3.5 7.8-7.8 7.8h-22.6c-4.3 0-7.8-3.5-7.8-7.8v-39.4s.3-4.1 0-9.6c-.6-12-3.7-31-17.5-31-20.2 0-22.5 20.7-22.5 20.7V224c0 4.3-3.5 7.8-7.8 7.8h-22.6c-4.3 0-7.8-3.5-7.8-7.8V122c0-4.3 3.5-7.8 7.8-7.8h22.6c4.3 0 7.8 3.5 7.8 7.8v7.5s5.9-13 31.6-17.3c7.2-.6 13.4.2 18.5 1.9 24.6 8.3 27.7 38.1 28.1 48.9z" class="st0"/><path d="M-112.8 184.6V175c.3 5.5 0 9.6 0 9.6z" class="st0"/><path d="M235.1 31.5H52.9c-11.8 0-21.4 9.6-21.4 21.4v182.3c0 11.8 9.6 21.4 21.4 21.4h182.3c11.8 0 21.4-9.6 21.4-21.4V52.9c-.1-11.8-9.7-21.4-21.5-21.4zm-12.5 153.2c0 6.5-5.2 11.7-11.7 11.7H82.5c-6.5 0-11.7-5.2-11.7-11.7v-76.4c0-6.5 5.2-11.7 11.7-11.7h128.4c6.5 0 11.7 5.2 11.7 11.7v76.4z" class="st1"/><path d="M79 103.9l44.8 40.8 16.3 14.9s8 5.5 14.2 0c6.2-5.5 60.7-54.3 60.7-54.3m-91.2 39.5L79 189m92-44.2l43.3 44.2" class="st2"/></symbol></svg>